<?xml version="1.0" encoding="UTF-8" standalone="no"?>
<!-- Created with Inkscape (http://www.inkscape.org/) -->

<svg
   width="1024"
   height="1024"
   viewBox="0 0 512 512"
   version="1.1"
   id="svg1"
   xml:space="preserve"
   sodipodi:docname="sr2.svg"
   inkscape:version="1.4.3 (0d15f75, 2025-12-25)"
   inkscape:export-filename="sr2.png"
   inkscape:export-xdpi="96"
   inkscape:export-ydpi="96"
   xmlns:inkscape="http://www.inkscape.org/namespaces/inkscape"
   xmlns:sodipodi="http://sodipodi.sourceforge.net/DTD/sodipodi-0.dtd"
   xmlns="http://www.w3.org/2000/svg"
   xmlns:svg="http://www.w3.org/2000/svg"><sodipodi:namedview
     id="namedview1"
     pagecolor="#000000"
     bordercolor="#000000"
     borderopacity="0.25"
     inkscape:showpageshadow="2"
     inkscape:pageopacity="0.0"
     inkscape:pagecheckerboard="0"
     inkscape:deskcolor="#d1d1d1"
     inkscape:zoom="0.51582887"
     inkscape:cx="392.57206"
     inkscape:cy="594.18931"
     inkscape:window-width="1512"
     inkscape:window-height="916"
     inkscape:window-x="0"
     inkscape:window-y="38"
     inkscape:window-maximized="1"
     inkscape:current-layer="layer1" /><defs
     id="defs1" /><g
     id="layer1"><path
       style="display:inline;fill:#20408c;fill-opacity:1;stroke:none;stroke-width:0.111404;stroke-linecap:square;stroke-linejoin:bevel"
       id="path5"
       d="M 482.82007,256 A 226.82007,226.82007 0 0 1 262.00176,482.74065 226.82007,226.82007 0 0 1 29.497551,267.99933 226.82007,226.82007 0 0 1 238.01152,29.894366 226.82007,226.82007 0 0 1 481.55048,232.03496" /><path
       id="path1"
       style="display:inline;fill:#3d81ff;fill-opacity:1;stroke:none;stroke-width:0.111404;stroke-linecap:square;stroke-linejoin:bevel;opacity:1"
       d="M 427.92578 260.27539 C 425.03883 260.1586 422.15791 261.00871 419.77344 262.74219 C 419.22859 263.13841 418.70881 263.58085 418.22168 264.06836 L 336.10156 338.98828 L 300.33203 311.83594 C 297.00234 309.30819 292.34454 309.51612 289.25195 312.3291 L 277.7793 322.76465 C 273.99647 326.20581 273.99174 332.15693 277.76953 335.60352 L 308.79102 363.9043 L 277.76953 392.20605 C 273.99174 395.65264 273.99647 401.60397 277.7793 405.04492 L 289.25195 415.48047 C 292.34454 418.29366 297.00234 418.50117 300.33203 415.97363 L 336.10156 388.82031 L 390.61523 438.55469 A 226.82007 226.82007 0 0 0 425.43262 406.79785 L 368.92578 363.9043 L 431.23633 316.60645 L 431.23633 400.0127 A 226.82007 226.82007 0 0 0 480.79395 286.25195 C 479.55238 284.5481 477.89286 283.13927 475.91895 282.18945 L 433.02246 261.54883 C 431.39246 260.76447 429.65795 260.34546 427.92578 260.27539 z " /><path
       style="font-weight:300;font-size:102.331px;font-family:'Nokia Pure Headline';-inkscape-font-specification:'Nokia Pure Headline Light';fill:#ffffff;stroke-width:3.31791;stroke-linecap:square;stroke-linejoin:bevel"
       d="m 98.795944,178.48023 q -8.595804,-2.66061 -13.200699,-7.2655 -4.604895,-4.70723 -4.604895,-11.76807 0,-4.19557 1.330303,-7.87949 1.432634,-3.68391 4.297902,-6.44685 2.865268,-2.76294 7.16317,-4.2979 4.297902,-1.6373 10.130765,-1.6373 2.76294,0 5.62821,0.40933 2.86527,0.40932 5.52587,1.12564 2.66061,0.71631 4.91189,1.73962 2.25128,0.92098 3.78625,1.94429 l -2.45595,5.42355 q -2.35361,-1.53497 -7.06084,-3.06993 -4.70722,-1.53497 -10.74475,-1.53497 -7.777156,0 -11.870396,3.58159 -4.09324,3.58158 -4.09324,9.82377 0,2.45595 0.613986,4.40024 0.716317,1.94428 2.251282,3.58158 1.534965,1.6373 4.09324,2.9676 2.558275,1.3303 6.344518,2.66061 l 7.36784,2.55827 q 8.80046,3.06993 12.68904,7.67483 3.99091,4.60489 3.99091,11.87039 0,4.19557 -1.53497,7.87949 -1.43263,3.68392 -4.40023,6.44685 -2.86527,2.66061 -7.36783,4.2979 -4.40023,1.53497 -10.2331,1.53497 -4.400234,0 -8.186481,-0.71632 -3.786247,-0.71631 -6.856177,-1.73962 -2.967599,-1.02331 -5.11655,-2.04662 -2.04662,-1.12565 -2.967599,-1.84196 l 2.660606,-5.42355 q 1.432634,0.92098 3.376923,1.94429 2.04662,0.92098 4.604895,1.84196 2.558275,0.81865 5.730536,1.43264 3.172261,0.51165 6.856177,0.51165 7.57249,0 12.17739,-3.37692 4.60489,-3.37693 4.60489,-10.2331 0,-5.11655 -2.9676,-8.59581 -2.96759,-3.47925 -10.02843,-5.73053 z m 83.502036,34.48554 h -7.47017 l -17.60093,-29.57365 h -14.63333 v 29.57365 h -6.24219 v -71.93869 h 18.93123 q 6.44685,0 10.74476,1.84196 4.40023,1.84196 7.06084,4.91189 2.6606,2.9676 3.78624,6.75384 1.22797,3.68392 1.22797,7.47017 0,4.19557 -1.12564,7.47016 -1.02331,3.27459 -2.9676,5.73054 -1.94428,2.45594 -4.50256,4.2979 -2.55827,1.73962 -5.42354,2.76293 z m -10.64243,-50.65384 q 0,-7.16317 -4.09324,-11.35874 -3.99091,-4.19557 -13.09837,-4.19557 h -11.87039 v 31.00629 h 12.27972 q 8.69813,0 12.68904,-4.19557 4.09324,-4.19557 4.09324,-11.25641 z m 52.59821,44.71865 h 33.25757 v 5.93519 H 217.8069 v -71.93869 h 6.44686 z m 42.16029,-44.82098 h 6.03753 v 50.75617 h -6.03753 z m -1.6373,-16.98695 q 0,-2.25128 1.22797,-3.58158 1.33031,-1.43264 3.37693,-1.43264 2.04662,0 3.37692,1.43264 1.3303,1.3303 1.3303,3.58158 0,2.35361 -1.3303,3.68392 -1.3303,1.3303 -3.37692,1.3303 -2.04662,0 -3.37693,-1.3303 -1.22797,-1.43264 -1.22797,-3.68392 z m 26.60615,16.98695 0.20466,9.10746 q 2.35361,-4.91189 6.85618,-7.67483 4.60489,-2.76294 11.05174,-2.76294 8.80047,0 13.2007,4.80956 4.40024,4.80956 4.40024,14.12168 v 33.15524 h -6.03753 v -32.33659 q 0,-3.99091 -1.02331,-6.75385 -0.92098,-2.76293 -2.66061,-4.40023 -1.6373,-1.6373 -3.99091,-2.35361 -2.25128,-0.71632 -5.01422,-0.71632 -4.19557,0 -7.36783,1.94429 -3.06993,1.84196 -5.11655,4.91189 -2.04662,2.9676 -3.06993,6.75384 -1.02331,3.78625 -1.02331,7.67483 v 25.27575 h -6.03753 V 162.2096 Z m 83.39987,0 h 6.03753 v 50.75617 h -5.6282 l -0.20466,-9.41445 q -2.45595,4.91189 -6.95851,7.77716 -4.40024,2.86527 -11.46107,2.86527 -8.39115,0 -12.68905,-4.70723 -4.2979,-4.80956 -4.2979,-14.12168 V 162.2096 h 6.03753 v 32.33659 q 0,3.99091 0.92098,6.75385 0.92098,2.66061 2.55827,4.2979 1.73963,1.6373 3.99091,2.35362 2.35361,0.71631 5.11655,0.71631 3.99091,0 7.06084,-1.84196 3.06993,-1.84195 5.21888,-4.80955 2.14895,-2.9676 3.17226,-6.65152 1.12564,-3.78624 1.12564,-7.67482 z m 48.40249,0 h 6.65152 l -16.57762,23.94545 18.41958,26.81072 h -7.06084 l -15.24732,-22.30815 -14.63333,22.30815 H 387.9834 L 406.09599,186.46205 389.6207,162.2096 h 6.9585 l 13.30303,19.85221 z"
       id="text1"
       aria-label="SR Linux" /><path
       d="m 84.903164,249.7402 q -0.996889,-1.1393 -1.993777,-2.42102 -0.996888,-1.28171 -1.780157,-2.70584 -0.783269,-1.49533 -1.281714,-3.06187 -0.498444,-1.63774 -0.498444,-3.4891 0,-2.42102 0.78327,-4.486 0.854475,-2.13619 2.421014,-3.70273 1.566538,-1.56654 3.773934,-2.42101 2.207395,-0.92569 4.913234,-0.92569 4.984441,0 8.188725,2.77705 3.275491,2.77705 3.275491,7.83269 0,2.34981 -0.85448,4.34359 -0.85447,1.99377 -2.421011,3.63152 -1.495333,1.63774 -3.631522,3.06187 -2.064982,1.42413 -4.628409,2.63463 l 14.383672,16.8759 q 0.78327,-0.71207 1.63775,-1.85137 0.92568,-1.1393 1.85136,-2.49222 0.92568,-1.35292 1.70895,-2.70584 0.78327,-1.42412 1.35292,-2.63463 l 3.4179,1.70895 q -1.42412,3.06187 -3.34669,5.91012 -1.85137,2.77705 -4.05876,4.98444 l 6.05253,7.12063 h -5.41168 l -3.84514,-4.62841 q -2.70584,2.27861 -6.693388,3.91635 -3.916347,1.63775 -8.615963,1.63775 -3.987552,0 -6.978217,-0.99689 -2.990664,-1.0681 -5.055647,-2.91946 -1.993777,-1.85136 -2.990665,-4.41479 -0.996888,-2.56343 -0.996888,-5.55409 0,-5.55409 2.990665,-9.0432 2.990664,-3.56032 8.331137,-5.98133 z m 2.349807,2.84825 q -1.92257,0.85448 -3.631521,1.92257 -1.708951,1.06809 -2.990664,2.56343 -1.281714,1.42412 -1.993777,3.27549 -0.712063,1.85136 -0.712063,4.20117 0,4.91323 3.061871,7.61907 3.061871,2.63464 8.829581,2.63464 3.84514,0 7.191836,-1.42413 3.346696,-1.42413 5.340476,-3.13308 z m -3.84514,-14.81091 q 0,3.06187 1.637745,5.48289 1.637745,2.42101 3.702728,4.77082 4.913234,-2.2786 7.405455,-4.69962 2.563427,-2.49222 2.563427,-6.19495 0,-3.4179 -2.064983,-5.19806 -2.064983,-1.85136 -5.411679,-1.85136 -3.631521,0 -5.76771,2.2074 -2.064983,2.13618 -2.064983,5.48288 z m 67.574789,15.95021 q -5.98133,-1.85136 -9.18561,-5.05565 -3.20429,-3.27549 -3.20429,-8.18872 0,-2.91946 0.92568,-5.48289 0.99689,-2.56342 2.99067,-4.48599 1.99378,-1.92257 4.98444,-2.99067 2.99066,-1.1393 7.04942,-1.1393 1.92257,0 3.91635,0.28483 1.99378,0.28482 3.84514,0.78327 1.85136,0.49844 3.4179,1.2105 1.56654,0.64086 2.63464,1.35292 l -1.70896,3.77394 q -1.63774,-1.0681 -4.91323,-2.13619 -3.27549,-1.0681 -7.47666,-1.0681 -5.41168,0 -8.25993,2.49222 -2.84825,2.49222 -2.84825,6.83581 0,1.70895 0.42723,3.06187 0.49845,1.35292 1.56654,2.49222 1.0681,1.1393 2.84825,2.06498 1.78016,0.92568 4.41479,1.85137 l 5.12686,1.78015 q 6.12374,2.13619 8.82958,5.34048 2.77704,3.20428 2.77704,8.25993 0,2.91946 -1.06809,5.48288 -0.99689,2.56343 -3.06187,4.486 -1.99378,1.85136 -5.12685,2.99066 -3.06187,1.0681 -7.12063,1.0681 -3.06187,0 -5.69651,-0.49845 -2.63463,-0.49844 -4.77082,-1.2105 -2.06498,-0.71207 -3.56031,-1.42413 -1.42413,-0.78327 -2.06499,-1.28171 l 1.85137,-3.77394 q 0.99688,0.64086 2.3498,1.35292 1.42413,0.64086 3.20429,1.28172 1.78016,0.56965 3.98755,0.99689 2.2074,0.35603 4.77082,0.35603 5.26927,0 8.47355,-2.34981 3.20429,-2.34981 3.20429,-7.12063 0,-3.56032 -2.06499,-5.98133 -2.06498,-2.42101 -6.97821,-3.98755 z m 58.10429,23.99652 h -5.19806 l -12.24748,-20.57862 h -10.1825 v 20.57862 h -4.34359 v -50.05802 h 13.17317 q 4.48599,0 7.47666,1.28171 3.06187,1.28171 4.91323,3.4179 1.85137,2.06498 2.63464,4.69962 0.85447,2.56342 0.85447,5.19806 0,2.91946 -0.78327,5.19806 -0.71206,2.2786 -2.06498,3.98755 -1.35292,1.70895 -3.13308,2.99066 -1.78015,1.21051 -3.77393,1.92257 z m -7.40545,-35.24711 q 0,-4.98445 -2.84826,-7.9039 -2.77704,-2.91946 -9.1144,-2.91946 h -8.25993 v 21.57551 h 8.54475 q 6.05254,0 8.82958,-2.91946 2.84826,-2.91946 2.84826,-7.83269 z m 30.33392,10.1825 q 0,-5.83892 1.35292,-10.60974 1.42412,-4.84203 4.12996,-8.25993 2.70584,-3.41791 6.6934,-5.26927 3.98755,-1.92257 9.1144,-1.92257 5.12686,0 9.0432,1.92257 3.98756,1.85136 6.62219,5.26927 2.70584,3.4179 4.05876,8.25993 1.42412,4.77082 1.42412,10.60974 0,5.83891 -1.42412,10.68094 -1.35292,4.77082 -4.05876,8.25993 -2.63463,3.4179 -6.62219,5.34047 -3.98755,1.85137 -9.1144,1.85137 -5.12686,0 -9.11441,-1.85137 -3.98755,-1.92257 -6.69339,-5.34047 -2.63464,-3.48911 -4.05876,-8.25993 -1.35292,-4.84203 -1.35292,-10.68094 z m 4.69961,0 q 0,4.98444 0.99689,9.0432 0.99689,3.98755 3.06187,6.90701 2.06499,2.84825 5.12686,4.41479 3.13307,1.56654 7.33425,1.56654 4.20117,0 7.26304,-1.56654 3.13308,-1.56654 5.19806,-4.41479 2.06498,-2.91946 3.06187,-6.90701 0.99689,-4.05876 0.99689,-9.0432 0,-4.98444 -0.99689,-8.972 -0.99689,-4.05876 -3.06187,-6.90701 -2.06498,-2.84825 -5.19806,-4.41479 -3.06187,-1.56654 -7.26304,-1.56654 -4.20118,0 -7.33425,1.56654 -3.06187,1.56654 -5.12686,4.41479 -2.06498,2.84825 -3.06187,6.90701 -0.99689,3.98756 -0.99689,8.972 z m 57.67711,1.06809 q -5.98133,-1.85136 -9.18562,-5.05565 -3.20428,-3.27549 -3.20428,-8.18872 0,-2.91946 0.92568,-5.48289 0.99689,-2.56342 2.99067,-4.48599 1.99377,-1.92257 4.98444,-2.99067 2.99066,-1.1393 7.04942,-1.1393 1.92257,0 3.91635,0.28483 1.99377,0.28482 3.84514,0.78327 1.85136,0.49844 3.4179,1.2105 1.56654,0.64086 2.63463,1.35292 l -1.70895,3.77394 q -1.63774,-1.0681 -4.91323,-2.13619 -3.27549,-1.0681 -7.47666,-1.0681 -5.41168,0 -8.25993,2.49222 -2.84826,2.49222 -2.84826,6.83581 0,1.70895 0.42724,3.06187 0.49845,1.35292 1.56654,2.49222 1.06809,1.1393 2.84825,2.06498 1.78016,0.92568 4.41479,1.85137 l 5.12686,1.78015 q 6.12374,2.13619 8.82958,5.34048 2.77704,3.20428 2.77704,8.25993 0,2.91946 -1.06809,5.48288 -0.99689,2.56343 -3.06187,4.486 -1.99378,1.85136 -5.12686,2.99066 -3.06187,1.0681 -7.12063,1.0681 -3.06187,0 -5.6965,-0.49845 -2.63463,-0.49844 -4.77082,-1.2105 -2.06499,-0.71207 -3.56032,-1.42413 -1.42412,-0.78327 -2.06498,-1.28171 l 1.85136,-3.77394 q 0.99689,0.64086 2.34981,1.35292 1.42413,0.64086 3.20429,1.28172 1.78015,0.56965 3.98755,0.99689 2.20739,0.35603 4.77082,0.35603 5.26927,0 8.47355,-2.34981 3.20428,-2.34981 3.20428,-7.12063 0,-3.56032 -2.06498,-5.98133 -2.06498,-2.42101 -6.97822,-3.98755 z"
       id="text18"
       style="font-weight:300;font-size:71.2063px;font-family:'Nokia Pure Headline';-inkscape-font-specification:'Nokia Pure Headline Light';fill:#ffffff;stroke-width:22.2521;stroke-linecap:square;stroke-linejoin:bevel"
       aria-label="&amp; SR OS" /></g></svg>