<?xml version="1.0" encoding="UTF-8" standalone="no"?>
<!-- Created with Inkscape (http://www.inkscape.org/) -->

<svg
   width="1024"
   height="1024"
   viewBox="0 0 512 512"
   version="1.1"
   id="svg1"
   xml:space="preserve"
   sodipodi:docname="sr2.svg"
   inkscape:version="1.4.3 (0d15f75, 2025-12-25)"
   inkscape:export-filename="sr2.png"
   inkscape:export-xdpi="96"
   inkscape:export-ydpi="96"
   xmlns:inkscape="http://www.inkscape.org/namespaces/inkscape"
   xmlns:sodipodi="http://sodipodi.sourceforge.net/DTD/sodipodi-0.dtd"
   xmlns="http://www.w3.org/2000/svg"
   xmlns:svg="http://www.w3.org/2000/svg"><sodipodi:namedview
     id="namedview1"
     pagecolor="#000000"
     bordercolor="#000000"
     borderopacity="0.25"
     inkscape:showpageshadow="2"
     inkscape:pageopacity="0.0"
     inkscape:pagecheckerboard="0"
     inkscape:deskcolor="#d1d1d1"
     inkscape:zoom="2.0633155"
     inkscape:cx="594.18931"
     inkscape:cy="20.597917"
     inkscape:window-width="1512"
     inkscape:window-height="916"
     inkscape:window-x="0"
     inkscape:window-y="38"
     inkscape:window-maximized="1"
     inkscape:current-layer="layer1" /><defs
     id="defs1" /><g
     id="layer1"><path
       style="display:inline;fill:#20408c;fill-opacity:1;stroke:none;stroke-width:0.12521;stroke-linecap:square;stroke-linejoin:bevel"
       id="path5"
       d="M 510.93017,256 A 254.93017,254.93017 0 0 1 262.74557,510.84091 254.93017,254.93017 0 0 1 1.4268161,269.48642 254.93017,254.93017 0 0 1 235.78218,1.8728089 254.93017,254.93017 0 0 1 509.50324,229.06494" /><path
       id="path1"
       style="display:inline;opacity:1;fill:#3d81ff;fill-opacity:1;stroke:none;stroke-width:0.12521;stroke-linecap:square;stroke-linejoin:bevel"
       d="m 449.23276,260.80524 c -3.24473,-0.13126 -6.48269,0.82421 -9.16267,2.77252 -0.61237,0.44532 -1.19657,0.94259 -1.74407,1.49052 l -92.29737,84.20484 -40.2025,-30.51736 c -3.74234,-2.84102 -8.97739,-2.60732 -12.45324,0.55428 l -12.89447,11.72884 c -4.25164,3.86762 -4.25696,10.55627 -0.011,14.43 l 34.86602,31.80814 -34.86602,31.80922 c -4.24598,3.87373 -4.24066,10.56261 0.011,14.43001 l 12.89447,11.72884 c 3.47585,3.16183 8.7109,3.39506 12.45324,0.55427 l 40.2025,-30.51846 61.26962,55.89802 a 254.93017,254.93017 0 0 0 39.13235,-35.6925 l -63.50981,-48.2094 70.03278,-53.15954 v 93.7429 a 254.93017,254.93017 0 0 0 55.69936,-127.85927 c -1.39544,-1.91501 -3.26063,-3.49844 -5.47917,-4.56597 l -48.2127,-23.19864 c -1.83201,-0.88156 -3.78148,-1.3525 -5.72832,-1.43126 z" /><path
       style="font-weight:300;font-size:102.331px;font-family:'Nokia Pure Headline';-inkscape-font-specification:'Nokia Pure Headline Light';fill:#ffffff;stroke-width:3.7291;stroke-linecap:square;stroke-linejoin:bevel"
       d="m 79.313447,168.87311 q -9.661093,-2.99035 -14.836679,-8.16593 -5.175585,-5.2906 -5.175585,-13.2265 0,-4.71553 1.495169,-8.856 1.610182,-4.14046 4.830546,-7.24582 3.220365,-3.10535 8.050911,-4.83054 4.830546,-1.84022 11.386284,-1.84022 3.105354,0 6.325721,0.46006 3.220366,0.46005 6.210698,1.26514 2.990338,0.80509 5.520628,1.95522 2.53028,1.03512 4.25548,2.18525 l -2.76032,6.09569 q -2.64529,-1.7252 -7.935895,-3.45039 -5.290591,-1.7252 -12.07636,-1.7252 -8.740989,0 -13.341509,4.02546 -4.600521,4.02545 -4.600521,11.04125 0,2.76032 0.690078,4.94556 0.805092,2.18524 2.530287,4.02545 1.725195,1.84022 4.60052,3.33538 2.875325,1.49517 7.130802,2.99034 l 8.280946,2.87532 q 9.891112,3.45039 14.261612,8.62599 4.48551,5.17558 4.48551,13.3415 0,4.71553 -1.72521,8.856 -1.61017,4.14048 -4.94555,7.24582 -3.220368,2.99034 -8.280936,4.83054 -4.945556,1.7252 -11.501301,1.7252 -4.945561,0 -9.201042,-0.80509 -4.255481,-0.80508 -7.705872,-1.95521 -3.335377,-1.15013 -5.75065,-2.30026 -2.30026,-1.26516 -3.335378,-2.07024 l 2.990339,-6.0957 q 1.610182,1.03512 3.795429,2.18525 2.30026,1.03512 5.175586,2.07024 2.875325,0.9201 6.440728,1.61019 3.565403,0.57506 7.705872,0.57506 8.510958,0 13.686549,-3.79543 5.175576,-3.79544 5.175576,-11.5013 0,-5.75065 -3.335374,-9.6611 -3.335368,-3.91044 -11.271266,-6.44072 z M 173.164,207.63248 h -8.39596 L 144.9858,174.39373 h -16.44685 v 33.23875 h -7.0158 v -80.85414 h 21.2774 q 7.24582,0 12.07638,2.07024 4.94555,2.07023 7.93589,5.52062 2.99034,3.33538 4.25548,7.59086 1.38015,4.14047 1.38015,8.39595 0,4.71554 -1.26514,8.39595 -1.15013,3.68041 -3.33538,6.44073 -2.18524,2.76031 -5.06057,4.83055 -2.87532,1.95521 -6.09568,3.10534 z m -11.96136,-56.93143 q 0,-8.05091 -4.60052,-12.76644 -4.48551,-4.71554 -14.72167,-4.71554 h -13.3415 v 34.84894 h 13.80156 q 9.7761,0 14.26161,-4.71553 4.60052,-4.71553 4.60052,-12.65143 z m 59.11677,50.26069 h 37.37922 v 6.67074 h -44.62505 v -80.85414 h 7.24583 z m 47.38527,-50.3757 h 6.78576 v 57.04644 h -6.78576 z m -1.84022,-19.09217 q 0,-2.53028 1.38016,-4.02545 1.49517,-1.61019 3.79543,-1.61019 2.30026,0 3.79543,1.61019 1.49517,1.49517 1.49517,4.02545 0,2.6453 -1.49517,4.14048 -1.49517,1.49516 -3.79543,1.49516 -2.30026,0 -3.79543,-1.49516 -1.38016,-1.61019 -1.38016,-4.14048 z m 29.90349,19.09217 0.23002,10.23616 q 2.6453,-5.52063 7.70588,-8.62599 5.17558,-3.10535 12.42139,-3.10535 9.89113,0 14.83668,5.40561 4.94557,5.40562 4.94557,15.8718 v 37.26421 h -6.78577 v -36.3441 q 0,-4.48551 -1.15013,-7.59086 -1.03512,-3.10535 -2.99034,-4.94556 -1.84022,-1.84021 -4.48551,-2.6453 -2.53029,-0.80509 -5.63564,-0.80509 -4.71553,0 -8.28093,2.18525 -3.45039,2.07023 -5.75065,5.52062 -2.30026,3.33538 -3.45039,7.59086 -1.15014,4.25548 -1.15014,8.62598 v 28.4082 h -6.78576 v -57.04644 z m 93.73572,0 h 6.78577 v 57.04644 h -6.32571 l -0.23003,-10.58119 q -2.76032,5.52063 -7.82088,8.74099 -4.94557,3.22037 -12.88146,3.22037 -9.43107,0 -14.26162,-5.2906 -4.83054,-5.40562 -4.83054,-15.8718 v -37.26421 h 6.78577 v 36.3441 q 0,4.48551 1.03511,7.59086 1.03512,2.99035 2.87532,4.83055 1.95523,1.84021 4.48551,2.64531 2.6453,0.80508 5.75065,0.80508 4.48551,0 7.9359,-2.07024 3.45039,-2.07022 5.86566,-5.4056 2.41528,-3.33538 3.56541,-7.47585 1.26514,-4.25548 1.26514,-8.62597 z m 54.40107,0 h 7.47585 l -18.6321,26.91304 20.70234,30.1334 h -7.9359 l -17.13694,-25.07282 -16.44686,25.07282 h -7.59086 l 20.35731,-29.78836 -18.5171,-27.25808 h 7.82088 l 14.95169,22.31252 z"
       id="text1"
       aria-label="SR Linux" /><path
       d="m 63.698917,248.96442 q -1.120435,-1.2805 -2.240869,-2.72107 -1.120433,-1.44055 -2.000774,-3.04117 -0.88034,-1.68065 -1.440558,-3.44133 -0.560217,-1.84071 -0.560217,-3.92151 0,-2.72106 0.880342,-5.04196 0.960371,-2.40093 2.721053,-4.16161 1.760681,-1.76069 4.241642,-2.72105 2.480961,-1.04041 5.522138,-1.04041 5.602169,0 9.203564,3.12121 3.681427,3.12121 3.681427,8.8034 0,2.64103 -0.960377,4.8819 -0.960366,2.24086 -2.72105,4.08158 -1.680652,1.84071 -4.081581,3.44133 -2.320898,1.60063 -5.202014,2.96114 l 16.166259,18.96736 q 0.880341,-0.80032 1.840718,-2.08082 1.040401,-1.28049 2.080802,-2.80108 1.0404,-1.52059 1.920742,-3.04118 0.880342,-1.60061 1.520589,-2.96114 l 3.841485,1.92074 q -1.600613,3.44133 -3.76145,6.64257 -2.080812,3.12121 -4.561767,5.60217 l 6.802628,8.0031 h -6.082357 l -4.321673,-5.20202 q -3.041178,2.561 -7.522908,4.40171 -4.401705,1.84072 -9.68375,1.84072 -4.481734,0 -7.843036,-1.12044 -3.361301,-1.20047 -5.6822,-3.28127 -2.240868,-2.0808 -3.361302,-4.96192 -1.120433,-2.88112 -1.120433,-6.24242 0,-6.24241 3.361301,-10.16393 3.361301,-4.00156 9.363626,-6.7226 z m 2.641021,3.20123 q -2.160836,0.96038 -4.08158,2.16084 -1.920743,1.20046 -3.3613,2.88112 -1.440559,1.60061 -2.240869,3.68142 -0.80031,2.0808 -0.80031,4.72183 0,5.52213 3.441333,8.56331 3.441332,2.96116 9.923842,2.96116 4.321673,0 8.083129,-1.60063 3.761457,-1.60062 6.002328,-3.52137 z m -4.321673,-16.64644 q 0,3.44133 1.840713,6.16239 1.840713,2.72105 4.161612,5.36207 5.522137,-2.56099 8.323222,-5.28205 2.881116,-2.80108 2.881116,-6.9627 0,-3.84148 -2.320899,-5.84226 -2.320899,-2.0808 -6.082355,-2.0808 -4.08158,0 -6.48251,2.48097 -2.320899,2.40092 -2.320899,6.16238 z m 75.949415,17.92694 q -6.7226,-2.0808 -10.32399,-5.68221 -3.6014,-3.68142 -3.6014,-9.20355 0,-3.28128 1.0404,-6.1624 1.12043,-2.8811 3.36131,-5.04194 2.24087,-2.16084 5.60216,-3.36131 3.3613,-1.28049 7.92307,-1.28049 2.16083,0 4.40171,0.32013 2.24087,0.32011 4.32167,0.88034 2.0808,0.56021 3.84148,1.36052 1.76069,0.72028 2.96116,1.52059 l -1.92076,4.24165 q -1.8407,-1.20048 -5.52213,-2.40094 -3.68142,-1.20047 -8.40325,-1.20047 -6.08236,0 -9.28359,2.80109 -3.20124,2.80108 -3.20124,7.68298 0,1.92074 0.48018,3.44133 0.56022,1.52059 1.76068,2.80108 1.20047,1.2805 3.20124,2.3209 2.00077,1.0404 4.96192,2.08081 l 5.76223,2.00077 q 6.88267,2.40093 9.92385,6.00233 3.1212,3.60139 3.1212,9.28359 0,3.28128 -1.20046,6.16238 -1.12044,2.88112 -3.44133,5.04196 -2.24088,2.0808 -5.76223,3.3613 -3.44133,1.20047 -8.0031,1.20047 -3.44133,0 -6.40248,-0.56023 -2.96115,-0.56021 -5.36208,-1.36052 -2.32089,-0.80031 -4.00154,-1.60062 -1.60063,-0.88034 -2.32091,-1.44055 l 2.08081,-4.24165 q 1.12043,0.72028 2.64102,1.52059 1.60062,0.72028 3.6014,1.44056 2.00078,0.64025 4.48173,1.12044 2.48097,0.40015 5.36207,0.40015 5.9223,0 9.52369,-2.64102 3.6014,-2.64103 3.6014,-8.0031 0,-4.00156 -2.3209,-6.72261 -2.3209,-2.72105 -7.84303,-4.48173 z m 65.30523,26.97044 h -5.84226 l -13.76533,-23.12896 h -11.44443 v 23.12896 H 167.339 v -56.26178 h 14.80573 q 5.04195,0 8.40326,1.44056 3.44133,1.44055 5.52213,3.84148 2.08081,2.3209 2.96115,5.28205 0.96037,2.88111 0.96037,5.84226 0,3.28128 -0.88034,5.84227 -0.80031,2.56099 -2.3209,4.48173 -1.52059,1.92074 -3.52136,3.36129 -2.00077,1.36053 -4.24164,2.16084 z m -8.32322,-39.61533 q 0,-5.60218 -3.20124,-8.88344 -3.12121,-3.28128 -10.24396,-3.28128 h -9.2836 v 24.24939 h 9.60372 q 6.80263,0 9.92384,-3.28127 3.20124,-3.28127 3.20124,-8.8034 z m 34.09325,11.44443 q 0,-6.56255 1.52058,-11.92462 1.60062,-5.44211 4.6418,-9.28359 3.04117,-3.8415 7.52292,-5.9223 4.48173,-2.16084 10.24396,-2.16084 5.76223,0 10.16393,2.16084 4.48175,2.0808 7.44289,5.9223 3.04118,3.84148 4.56177,9.28359 1.60061,5.36207 1.60061,11.92462 0,6.56253 -1.60061,12.00464 -1.52059,5.36207 -4.56177,9.28359 -2.96114,3.84149 -7.44289,6.00232 -4.48173,2.08082 -10.24396,2.08082 -5.76224,0 -10.24397,-2.08082 -4.48173,-2.16083 -7.52291,-6.00232 -2.96115,-3.92152 -4.56177,-9.28359 -1.52058,-5.44211 -1.52058,-12.00464 z m 5.28203,0 q 0,5.60217 1.12044,10.16393 1.12044,4.48173 3.44133,7.76301 2.32091,3.20123 5.76224,4.96192 3.52136,1.76068 8.24319,1.76068 4.72183,0 8.16316,-1.76068 3.52137,-1.76069 5.84226,-4.96192 2.3209,-3.28128 3.44133,-7.76301 1.12044,-4.56176 1.12044,-10.16393 0,-5.60217 -1.12044,-10.08391 -1.12043,-4.56177 -3.44133,-7.76301 -2.32089,-3.20124 -5.84226,-4.96192 -3.44133,-1.76068 -8.16316,-1.76068 -4.72183,0 -8.24319,1.76068 -3.44133,1.76068 -5.76224,4.96192 -2.32089,3.20124 -3.44133,7.76301 -1.12044,4.48174 -1.12044,10.08391 z m 64.82511,1.20046 q -6.7226,-2.0808 -10.324,-5.68221 -3.60139,-3.68142 -3.60139,-9.20355 0,-3.28128 1.0404,-6.1624 1.12043,-2.8811 3.3613,-5.04194 2.24086,-2.16084 5.60217,-3.36131 3.3613,-1.28049 7.92307,-1.28049 2.16083,0 4.4017,0.32013 2.24086,0.32011 4.32168,0.88034 2.0808,0.56021 3.84148,1.36052 1.76068,0.72028 2.96114,1.52059 l -1.92074,4.24165 q -1.84071,-1.20048 -5.52213,-2.40094 -3.68143,-1.20047 -8.40325,-1.20047 -6.08236,0 -9.2836,2.80109 -3.20125,2.80108 -3.20125,7.68298 0,1.92074 0.48019,3.44133 0.56023,1.52059 1.76069,2.80108 1.20046,1.2805 3.20123,2.3209 2.00078,1.0404 4.96192,2.08081 l 5.76224,2.00077 q 6.88267,2.40093 9.92384,6.00233 3.12121,3.60139 3.12121,9.28359 0,3.28128 -1.20046,6.16238 -1.12044,2.88112 -3.44134,5.04196 -2.24087,2.0808 -5.76223,3.3613 -3.44134,1.20047 -8.0031,1.20047 -3.44133,0 -6.40248,-0.56023 -2.96114,-0.56021 -5.36207,-1.36052 -2.32091,-0.80031 -4.00156,-1.60062 -1.60061,-0.88034 -2.32089,-1.44055 l 2.0808,-4.24165 q 1.12044,0.72028 2.64103,1.52059 1.60062,0.72028 3.6014,1.44056 2.00076,0.64025 4.48173,1.12044 2.48095,0.40015 5.36207,0.40015 5.9223,0 9.52369,-2.64102 3.60139,-2.64103 3.60139,-8.0031 0,-4.00156 -2.32089,-6.72261 -2.3209,-2.72105 -7.84304,-4.48173 z"
       id="text18"
       style="font-weight:300;font-size:71.2063px;font-family:'Nokia Pure Headline';-inkscape-font-specification:'Nokia Pure Headline Light';fill:#ffffff;stroke-width:25.0098;stroke-linecap:square;stroke-linejoin:bevel"
       aria-label="&amp; SR OS" /></g></svg>
